# xmcd
#
# Track frame offsets:
#	150
#	20545
#	41020
#	63205
#	82552
#	104982
#	128037
#	148077
#	172020
#	196305
#	219842
#	237985
#	260022
#	279970
#	305252
#
# Disc length: 4291 seconds
#
# Revision: 4
# Processed by: cddbd v1.5.2PL0 Copyright (c) Steve Scherf et al.
# Submitted via: audiograbber 1.83.01
#
DISCID=d110c10f
DTITLE=After 7 - The Very Best Of After 7
DYEAR=1997
DGENRE=R&B
TTITLE0=Sara Smile
TTITLE1=Ready Or Not
TTITLE2=Can't Stop (Remix)
TTITLE3=Heat Of The Moment (Remix)
TTITLE4=One Night
TTITLE5=Baby I'm For Real (Natural High)
TTITLE6=Not Enough Hours In The Night
TTITLE7=Can He Love U Like This
TTITLE8=Takin' My Time
TTITLE9=Gonne Love You Right (A Cappella Remix)
TTITLE10=Nights Like This
TTITLE11='Til You Do Me Right
TTITLE12=I Like It Like That
TTITLE13=G.S.T. (Herbert Baby Doll Dub)
TTITLE14=Honey (Oh How I Need You)
EXTD=
EXTT0=
EXTT1=
EXTT2=
EXTT3=
EXTT4=
EXTT5=
EXTT6=
EXTT7=
EXTT8=
EXTT9=
EXTT10=
EXTT11=
EXTT12=
EXTT13=
EXTT14=
PLAYORDER=
